<?xml version="1.0" standalone="no"?>
<!DOCTYPE svg PUBLIC "-//W3C//DTD SVG 20010904//EN"
 "http://www.w3.org/TR/2001/REC-SVG-20010904/DTD/svg10.dtd">
<svg version="1.0" xmlns="http://www.w3.org/2000/svg"
 width="192.000000pt" height="192.000000pt" viewBox="0 0 192.000000 192.000000"
 preserveAspectRatio="xMidYMid meet">
<metadata>
Created by potrace 1.11, written by Peter Selinger 2001-2013
</metadata>
<g transform="translate(0.000000,192.000000) scale(0.100000,-0.100000)"
fill="#000000" stroke="none">
<path d="M0 960 l0 -960 960 0 960 0 0 960 0 960 -960 0 -960 0 0 -960z m1120
780 c-9 -6 -116 -10 -252 -10 -131 0 -238 -1 -238 -2 -1 -15 -350 -1371 -353
-1375 -3 -2 -12 -3 -20 -1 -11 2 10 93 98 423 61 231 144 545 185 698 l73 277
261 0 c172 0 256 -4 246 -10z m567 -547 c-3 -10 -5 -4 -5 12 0 17 2 24 5 18 2
-7 2 -21 0 -30z m-22 -148 c-54 -229 -215 -384 -447 -430 -81 -16 -188 -20
-188 -7 1 21 22 30 89 36 102 9 154 23 241 64 148 70 266 226 302 402 10 50
14 58 16 35 2 -16 -4 -61 -13 -100z"/>
</g>
</svg>
